#!OML:ASF F:\VICON\USERDATA\INSTALL\Justin_Nancy\Justin_Nancy.ASF
:FULLY-SPECIFIED
:DEGREES
80
root 2.512 16.5496 10.6491 -4.6569 -43.136 18.0668
lowerback 12.136 0.602528 -3.6897
upperback 2.02795 0.300369 0.24841
thorax -4.69729 0.192688 2.29619
lowerneck -16.5925 -4.07006 -11.3105
upperneck 13.79 -3.60583 4.62144
head 7.25439 -1.91614 2.94604
rclavicle -5.56597e-015 -7.95139e-015
rhumerus -43.3222 15.1482 -91.5467
rradius 108.21
rwrist -6.69875
rhand -16.575 26.2361
rfingers 7.12502
rthumb 9.64543 -3.52311
lclavicle -5.56597e-015 -7.95139e-015
lhumerus -57.117 -2.90978 90.2517
lradius 88.1112
lwrist 22.759
lhand -19.5049 6.73568
lfingers 7.12502
lthumb 6.81775 36.6059
rfemur -21.5586 3.07867 28.8562
rtibia 43.9075
rfoot -18.852 -10.5095
rtoes 23.606
lfemur -18.6442 6.76396 -14.3802
ltibia 79.7233
lfoot 0.856197 0.836015
ltoes -14.6326
81
root 2.31152 16.4521 11.0371 -1.45438 -43.4121 13.8684
lowerback 13.0109 0.688923 -1.11973
upperback 1.63823 0.791195 1.15473
thorax -5.60357 0.410101 1.70917
lowerneck -16.6076 -4.10832 -10.8573
upperneck 13.5815 -3.71604 4.356
head 7.183 -1.96423 2.77115
rclavicle -9.26337e-014 3.97569e-014
rhumerus -42.0154 15.7271 -91.6745
rradius 109.331
rwrist -7.26168
rhand -16.4212 26.3063
rfingers 7.12502
rthumb 9.79384 -3.44599
lclavicle -9.26337e-014 3.97569e-014
lhumerus -58.3955 -2.77092 89.7033
lradius 88.1723
lwrist 23.5271
lhand -21.8745 6.53332
lfingers 7.12502
lthumb 4.52996 36.4649
rfemur -20.3915 4.64562 32.1354
rtibia 43.7446
rfoot -18.7906 -12.7993
rtoes 18.3623
lfemur -24.0845 7.83388 -9.70671
ltibia 82.1659
lfoot 0.225142 -1.09785
ltoes -15.7766
82
root 2.04413 16.4033 11.5172 -0.905927 -43.5074 12.913
lowerback 13.1991 0.857972 -0.686838
upperback 1.47763 1.09932 1.5076
thorax -5.88885 0.557878 1.77937
lowerneck -15.9747 -4.13674 -10.9928
upperneck 13.1261 -3.75983 4.15866
head 6.93047 -2.00807 2.7275
rclavicle 1.47101e-014 -5.56597e-014
rhumerus -41.1228 16.5698 -91.5992
rradius 110.669
rwrist -7.66586
rhand -16.5438 26.5184
rfingers 7.12502
rthumb 9.67555 -3.23937
lclavicle 1.47101e-014 -5.56597e-014
lhumerus -59.7704 -2.30925 89.1799
lradius 88.2295
lwrist 23.5842
lhand -22.3601 6.79315
lfingers 7.12502
lthumb 4.06104 36.7342
rfemur -17.9604 4.95371 32.5858
rtibia 43.2516
rfoot -19.2236 -13.7803
rtoes 13.9181
lfemur -27.2393 8.7816 -8.58368
ltibia 83.0029
lfoot -1.14329 -0.887372
ltoes -19.7541
83
root 1.77122 16.3674 11.9923 -0.675788 -43.2419 12.5526
lowerback 13.3485 0.873789 -0.772502
upperback 1.34 1.12997 1.82019
thorax -6.12731 0.581216 2.15124
lowerneck -15.6615 -4.20157 -11.6941
upperneck 12.8849 -3.76179 4.39402
head 6.81935 -2.02247 2.91925
rclavicle -6.55989e-014 -4.77083e-015
rhumerus -40.1714 17.6977 -91.5602
rradius 112.094
rwrist -7.7974
rhand -16.9218 26.5679
rfingers 7.12502
rthumb 9.31083 -3.20647
lclavicle -6.55989e-014 -4.77083e-015
lhumerus -60.827 -1.71826 88.7042
lradius 88.214
lwrist 23.5342
lhand -21.9834 7.51493
lfingers 7.12502
lthumb 4.42478 37.4487
rfemur -15.4131 4.897 32.5379
rtibia 42.5174
rfoot -19.8052 -14.3407
rtoes 11.0677
lfemur -30.5583 9.38393 -8.30206
ltibia 83.5302
lfoot -2.65856 0.0274095
ltoes -21.4137
84
root 1.47224 16.3723 12.4792 -0.814402 -42.8899 12.6683
lowerback 13.2452 0.905562 -1.03495
upperback 1.33523 1.14427 1.97881
thorax -6.08435 0.59676 2.46602
lowerneck -15.4247 -4.35899 -12.5007
upperneck 12.698 -3.87879 4.74247
head 6.75357 -2.08748 3.15129
rclavicle -2.82274e-014 1.59028e-015
rhumerus -39.1504 18.6388 -91.5608
rradius 113.515
rwrist -7.89148
rhand -17.5903 26.7111
rfingers 7.12502
rthumb 8.6657 -3.09104
lclavicle -2.82274e-014 1.59028e-015
lhumerus -61.7701 -1.36196 88.4367
lradius 88.5126
lwrist 23.5702
lhand -21.5127 8.10804
lfingers 7.12502
lthumb 4.87933 38.0319
rfemur -12.4568 4.63409 32.0517
rtibia 41.4632
rfoot -20.3333 -14.608
rtoes 7.77085
lfemur -33.6563 9.5011 -8.59761
ltibia 83.18
lfoot -3.47182 0.959486
ltoes -18.1447
85
root 1.1583 16.4049 12.9707 -0.983675 -42.3265 12.6888
lowerback 13.1974 0.904381 -1.15042
upperback 1.28111 1.13886 2.15777
thorax -6.12119 0.60045 2.72247
lowerneck -14.9883 -4.42122 -12.7859
upperneck 12.5443 -3.9424 4.63116
head 6.64106 -2.14334 3.15692
rclavicle 3.97569e-015 -1.43125e-014
rhumerus -38.4015 19.2809 -91.4204
rradius 115.069
rwrist -8.56354
rhand -17.3042 26.866
rfingers 7.12502
rthumb 8.94179 -2.9245
lclavicle 3.97569e-015 -1.43125e-014
lhumerus -62.7524 -1.27807 88.3771
lradius 88.9358
lwrist 24.0507
lhand -21.1325 8.56301
lfingers 7.12502
lthumb 5.24639 38.4781
rfemur -9.56418 4.08153 31.6347
rtibia 40.0557
rfoot -19.4236 -15.0275
rtoes 1.11667
lfemur -36.222 9.4089 -9.13728
ltibia 82.223
lfoot -4.23894 2.07323
ltoes -17.3585
86
root 0.852662 16.4231 13.4578 -0.213758 -41.8833 11.7647
lowerback 12.9752 0.918208 -0.619974
upperback 1.02699 1.26578 2.56989
thorax -6.27291 0.658095 2.8365
lowerneck -14.5096 -4.50204 -13.2488
upperneck 12.5517 -4.02412 4.63942
head 6.582 -2.21106 3.22954
rclavicle -3.18055e-015 -3.65764e-014
rhumerus -38.13 19.8842 -91.1621
rradius 116.896
rwrist -9.61565
rhand -16.5893 27.0791
rfingers 7.12502
rthumb 9.63164 -2.68068
lclavicle -3.18055e-015 -3.65764e-014
lhumerus -63.8555 -1.19303 88.5733
lradius 89.4858
lwrist 24.6414
lhand -21.1945 8.94846
lfingers 7.12502
lthumb 5.18655 38.865
rfemur -6.72222 3.89266 31.9436
rtibia 38.3421
rfoot -18.5339 -14.3368
rtoes -2.7741
lfemur -39.0994 9.74785 -9.12736
ltibia 81.1111
lfoot -5.16313 3.12042
ltoes -19.3067
87
root 0.536172 16.4617 13.9494 0.375436 -41.53 11.0263
lowerback 12.731 1.1137 -0.0938062
upperback 0.892877 1.61238 2.73594
thorax -6.28862 0.816807 2.6527
lowerneck -14.3671 -4.81365 -13.5477
upperneck 12.7926 -4.44656 4.88392
head 6.68788 -2.41716 3.31372
rclavicle -9.38264e-014 -3.02153e-014
rhumerus -37.6868 19.817 -91.0467
rradius 118.676
rwrist -10.273
rhand -16.3967 27.4837
rfingers 7.12502
rthumb 9.81744 -2.26747
lclavicle -9.38264e-014 -3.02153e-014
lhumerus -64.5709 -1.70258 88.6782
lradius 90.065
lwrist 25.1429
lhand -20.6078 9.21442
lfingers 7.12502
lthumb 5.75306 39.1163
rfemur -3.75369 3.71458 32.0873
rtibia 36.4716
rfoot -17.622 -13.0016
rtoes -4.52062
lfemur -41.645 10.0067 -9.4059
ltibia 79.371
lfoot -6.00596 4.12303
ltoes -18.1675
88
root 0.210817 16.5136 14.4525 0.860922 -41.0961 10.197
lowerback 12.5051 1.47877 0.897498
upperback 0.924678 2.21731 2.5253
thorax -6.11099 1.08216 1.76419
lowerneck -14.4062 -5.34319 -13.0748
upperneck 13.0704 -5.28557 5.01139
head 6.8528 -2.79191 3.18696
rclavicle 9.22361e-014 -6.36111e-015
rhumerus -37.082 18.6993 -91.2338
rradius 120.225
rwrist -10.7271
rhand -16.2248 27.7574
rfingers 7.12502
rthumb 9.98331 -1.9858
lclavicle 9.22361e-014 -6.36111e-015
lhumerus -64.7831 -3.32077 88.5795
lradius 90.4954
lwrist 25.1721
lhand -20.7895 9.16249
lfingers 7.12502
lthumb 5.57761 39.0691
rfemur -0.651608 3.58418 32.3351
rtibia 34.5985
rfoot -16.1702 -11.5838
rtoes -5.21509
lfemur -43.7186 10.0476 -9.72258
ltibia 77.064
lfoot -6.76128 4.77533
ltoes -13.8243
89
root -0.115599 16.5738 14.9666 1.33192 -40.5893 9.47112
lowerback 12.1892 1.77485 1.92095
upperback 0.936075 2.72457 2.25393
thorax -5.87405 1.30178 0.822542
lowerneck -14.5486 -5.80888 -12.453
upperneck 13.4105 -6.03765 4.99542
head 7.03568 -3.12693 2.99387
rclavicle -5.36719e-014 -3.33958e-014
rhumerus -36.8025 17.7524 -91.4738
rradius 121.728
rwrist -11.2251
rhand -15.9923 27.7237
rfingers 7.12502
rthumb 10.2076 -2.00864
lclavicle -5.36719e-014 -3.33958e-014
lhumerus -64.9693 -4.82159 88.4753
lradius 90.9296
lwrist 25.2654
lhand -21.0363 9.11832
lfingers 7.12502
lthumb 5.33927 39.0311
rfemur 2.37795 3.65295 32.486
rtibia 32.7541
rfoot -14.3442 -9.81319
rtoes -2.0966
lfemur -45.6254 10.0805 -10.347
ltibia 74.2571
lfoot -5.43887 5.4072
ltoes -11.8176
90
root -0.445664 16.6359 15.4866 1.85146 -40.0505 8.77559
lowerback 11.7202 1.86122 2.79481
upperback 0.852595 2.93467 2.14295
thorax -5.65103 1.38448 0.195231
lowerneck -14.3904 -6.0455 -12.1335
upperneck 13.6506 -6.4791 5.1258
head 7.11912 -3.31732 2.93749
rclavicle 0 -7.95139e-015
rhumerus -36.8007 17.6076 -91.7482
rradius 122.995
rwrist -11.6484
rhand -15.9909 28.2668
rfingers 7.12502
rthumb 10.2089 -1.46549
lclavicle 0 -7.95139e-015
lhumerus -65.5274 -5.40969 88.5427
lradius 91.5464
lwrist 25.7076
lhand -19.5495 9.55899
lfingers 7.12502
lthumb 6.77471 39.4306
rfemur 5.04659 3.70455 32.6235
rtibia 31.0182
rfoot -11.2826 -8.23741
rtoes -0.505278
lfemur -47.342 10.1175 -11.1239
ltibia 71.0663
lfoot -5.2359 5.19605
ltoes -15.0382
